<mxfile host="app.diagrams.net" modified="2024-02-08T07:49:10.185Z" agent="Mozilla/5.0 (Macintosh; Intel Mac OS X 10_15_7) AppleWebKit/537.36 (KHTML, like Gecko) Chrome/121.0.0.0 Safari/537.36" version="23.1.2" etag="tg0C9yDl-C6I6zHUB_YH" type="github">
  <diagram name="Page-1" id="jo54pcN5TLepfqaFK5IL">
    <mxGraphModel>
      <root>
        <mxCell id="0" />
        <mxCell id="1" parent="0" />
      </root>
    </mxGraphModel>
  </diagram>
</mxfile>
